# xmcd CD database file
#
# Track frame offsets:
#	150
#	18562
#	38505
#	58857
#	77337
#	96532
#	116932
#	136600
#	157247
#	170485
#	187175
#
# Disc length: 2738 seconds
#
# Revision: 2
# Processed by: cddbd v1.5.1PL0 Copyright (c) Steve Scherf et al.
# Submitted via: CDex 1.51
#
DISCID=950ab00b
DTITLE=吉川晃司 - A-LA-BA・LA-M-BA
DYEAR=1987
DGENRE=J-Pop
TTITLE0=A-LA-BA・LA-M-BA
TTITLE1=MARILYNE
TTITLE2=BIG BAD BABY BASTARD
TTITLE3=終わらないSunSet
TTITLE4=雨のTraveller
TTITLE5=Stranger in Paradise
TTITLE6=Another Day
TTITLE7=Good-byeの次の朝
TTITLE8=きらわれついでのラスト・ダンス
TTITLE9=Raspberry Angel
TTITLE10=やせっぽちの天国
EXTD=YEAR: 1987
EXTT0=
EXTT1=
EXTT2=
EXTT3=
EXTT4=
EXTT5=
EXTT6=
EXTT7=
EXTT8=
EXTT9=
EXTT10=
PLAYORDER=
